<svg width="65" height="38" viewBox="0 0 65 38" fill="none" xmlns="http://www.w3.org/2000/svg">
<path d="M21.3595 6.9871C21.3595 10.8459 16.5781 13.9739 10.6797 13.9739C4.78142 13.9739 0 10.8459 0 6.9871C0 3.12815 4.78142 9.59664e-05 10.6797 9.59664e-05C16.5781 9.59664e-05 21.3595 3.12815 21.3595 6.9871Z" fill="#4F4F4F"/>
<path d="M42.7187 6.9871C42.7187 10.8459 37.9375 13.9739 32.0392 13.9739C26.1408 13.9739 21.3594 10.8459 21.3594 6.9871C21.3594 3.12815 26.1408 9.59664e-05 32.0392 9.59664e-05C37.9375 9.59664e-05 42.7187 3.12815 42.7187 6.9871Z" fill="#4F4F4F"/>
<path d="M64.0787 6.9871C64.0787 10.8459 59.2969 13.9739 53.3987 13.9739C47.5006 13.9739 42.7188 10.8459 42.7188 6.9871C42.7188 3.12815 47.5006 9.59664e-05 53.3987 9.59664e-05C59.2969 9.59664e-05 64.0787 3.12815 64.0787 6.9871Z" fill="#4F4F4F"/>
<path d="M21.3595 19.1684C21.3595 22.0375 16.5781 24.3628 10.6797 24.3628C4.78142 24.3628 0 22.0375 0 19.1684C0 16.3001 4.78142 13.974 10.6797 13.974C16.5781 13.974 21.3595 16.3001 21.3595 19.1684Z" fill="#4F4F4F"/>
<path d="M42.7187 19.1684C42.7187 22.0375 37.9375 24.3628 32.0392 24.3628C26.1408 24.3628 21.3594 22.0375 21.3594 19.1684C21.3594 16.3001 26.1408 13.974 32.0392 13.974C37.9375 13.974 42.7187 16.3001 42.7187 19.1684Z" fill="#4F4F4F"/>
<path d="M64.0787 19.1684C64.0787 22.0375 59.2969 24.3628 53.3987 24.3628C47.5006 24.3628 42.7188 22.0375 42.7188 19.1684C42.7188 16.3001 47.5006 13.974 53.3987 13.974C59.2969 13.974 64.0787 16.3001 64.0787 19.1684Z" fill="#4F4F4F"/>
<path d="M21.3595 27.9486C21.3595 29.9287 16.5781 31.5342 10.6797 31.5342C4.78142 31.5342 0 29.9287 0 27.9486C0 25.9683 4.78142 24.3628 10.6797 24.3628C16.5781 24.3628 21.3595 25.9683 21.3595 27.9486Z" fill="#4F4F4F"/>
<path d="M42.7187 27.9486C42.7187 29.9287 37.9375 31.5342 32.0392 31.5342C26.1408 31.5342 21.3594 29.9287 21.3594 27.9486C21.3594 25.9683 26.1408 24.3628 32.0392 24.3628C37.9375 24.3628 42.7187 25.9683 42.7187 27.9486Z" fill="#4F4F4F"/>
<path d="M64.0787 27.9486C64.0787 29.9287 59.2969 31.5342 53.3987 31.5342C47.5006 31.5342 42.7188 29.9287 42.7188 27.9486C42.7188 25.9683 47.5006 24.3628 53.3987 24.3628C59.2969 24.3628 64.0787 25.9683 64.0787 27.9486Z" fill="#4F4F4F"/>
<path d="M21.3595 33.7557C21.3595 34.9827 16.5781 35.9778 10.6797 35.9778C4.78142 35.9778 0 34.9827 0 33.7557C0 32.5285 4.78142 31.5343 10.6797 31.5343C16.5781 31.5343 21.3595 32.5285 21.3595 33.7557Z" fill="#4F4F4F"/>
<path d="M42.7187 33.7557C42.7187 34.9827 37.9375 35.9778 32.0392 35.9778C26.1408 35.9778 21.3594 34.9827 21.3594 33.7557C21.3594 32.5285 26.1408 31.5343 32.0392 31.5343C37.9375 31.5343 42.7187 32.5285 42.7187 33.7557Z" fill="#4F4F4F"/>
<path d="M64.0787 33.7557C64.0787 34.9827 59.2969 35.9778 53.3987 35.9778C47.5006 35.9778 42.7188 34.9827 42.7188 33.7557C42.7188 32.5285 47.5006 31.5343 53.3987 31.5343C59.2969 31.5343 64.0787 32.5285 64.0787 33.7557Z" fill="#4F4F4F"/>
<path d="M21.3595 36.9889C21.3595 37.5477 16.5781 38.0002 10.6797 38.0002C4.78142 38.0002 0 37.5477 0 36.9889C0 36.4301 4.78142 35.9777 10.6797 35.9777C16.5781 35.9777 21.3595 36.4301 21.3595 36.9889Z" fill="#4F4F4F"/>
<path d="M42.7187 36.9889C42.7187 37.5477 37.9375 38.0002 32.0392 38.0002C26.1408 38.0002 21.3594 37.5477 21.3594 36.9889C21.3594 36.4301 26.1408 35.9777 32.0392 35.9777C37.9375 35.9777 42.7187 36.4301 42.7187 36.9889Z" fill="#4F4F4F"/>
<path d="M64.0787 36.9889C64.0787 37.5477 59.2969 38.0002 53.3987 38.0002C47.5006 38.0002 42.7188 37.5477 42.7188 36.9889C42.7188 36.4301 47.5006 35.9777 53.3987 35.9777C59.2969 35.9777 64.0787 36.4301 64.0787 36.9889Z" fill="#4F4F4F"/>
</svg>
