<svg xmlns="http://www.w3.org/2000/svg" fill="none" viewBox="0 0 16 16" id="Doge--Streamline-Cryptocurrency-Black" height="16" width="16">
  <desc>
    Doge Streamline Icon: https://streamlinehq.com
  </desc>
  <path fill="#000000" fill-rule="evenodd" d="M8 15.840000000000002C3.6698666666666666 15.840000000000002 0.16 12.330133333333334 0.16 8S3.6698666666666666 0.16 8 0.16 15.840000000000002 3.6698666666666666 15.840000000000002 8 12.330133333333334 15.840000000000002 8 15.840000000000002Zm-2.7038060606060608 -7.400969696969697v3.480969696969697h3.2089696969696972c0.5929212121212122 0 1.105939393939394 -0.10288484848484848 1.5395878787878787 -0.3072484848484849 0.43364848484848484 -0.2052848484848485 0.7874424242424243 -0.4850909090909091 1.0623515151515153 -0.840339393939394 0.27437575757575755 -0.3547636363636364 0.47869090909090906 -0.7702787878787879 0.6124606060606061 -1.246060606060606 0.13376969696969696 -0.4757818181818182 0.20043636363636363 -0.9849212121212122 0.20043636363636363 -1.5263515151515152 0.003393939393939394 -0.5155878787878787 -0.06424242424242425 -1.0291878787878788 -0.2009212121212121 -1.5263515151515152 -0.13328484848484848 -0.47529696969696966 -0.3376 -0.8912969696969697 -0.612509090909091 -1.246060606060606 -0.27437575757575755 -0.35524848484848487 -0.628169696969697 -0.6350545454545455 -1.0618181818181818 -0.840339393939394 -0.43364848484848484 -0.20436363636363636 -0.9471515151515152 -0.3072484848484849 -1.5400727272727273 -0.3072484848484849h-3.2089696969696972v3.2388848484848487H4.569987878787878v1.1201454545454546h0.7262060606060606Zm1.3553454545454546 -1.119660606060606v-2.1192242424242425h1.3332848484848485c0.5277090909090909 0 0.9594181818181818 0.07103030303030303 1.2955636363636363 0.21410909090909092 0.3360969696969697 0.14259393939393938 0.5997575757575758 0.3400727272727273 0.7913212121212122 0.5929212121212122 0.19597575757575758 0.26293333333333335 0.3293575757575758 0.5670787878787878 0.39006060606060605 0.8893575757575758 0.0686060606060606 0.3405575757575758 0.10288484848484848 0.7080242424242424 0.10288484848484848 1.1034666666666668 0.0023757575757575758 0.3703272727272727 -0.03209696969696969 0.7400242424242425 -0.10288484848484848 1.1034666666666668 -0.0686060606060606 0.3405575757575758 -0.19844848484848485 0.6369939393939394 -0.39006060606060605 0.8893575757575758 -0.19156363636363638 0.2528484848484848 -0.4557090909090909 0.45032727272727274 -0.7913212121212122 0.5929212121212122 -0.3361454545454546 0.14307878787878786 -0.7678545454545456 0.21410909090909092 -1.2955636363636363 0.21410909090909092h-1.3332848484848485v-2.3608242424242425h2.1138424242424243v-1.119660606060606h-2.1138424242424243Z" clip-rule="evenodd" stroke-width="0.4848"></path>
</svg>