<svg xmlns="http://www.w3.org/2000/svg" fill="none" viewBox="0 0 16 16" id="Xmr--Streamline-Cryptocurrency-Black" height="16" width="16">
  <desc>
    Xmr Streamline Icon: https://streamlinehq.com
  </desc>
  <path fill="#000000" fill-rule="evenodd" d="M8 15.840000000000002C3.6698666666666666 15.840000000000002 0.16 12.330133333333334 0.16 8S3.6698666666666666 0.16 8 0.16 15.840000000000002 3.6698666666666666 15.840000000000002 8 12.330133333333334 15.840000000000002 8 15.840000000000002Zm-0.014690909090909091 -13.114860606060606c-0.6965818181818182 -0.0003878787878787879 -1.3863757575757576 0.13653333333333334 -2.0299636363636364 0.40295757575757574 -0.6436363636363636 0.26642424242424245 -1.228412121212121 0.6571151515151515 -1.7208727272727273 1.1496727272727274 -0.49250909090909095 0.4926060606060606 -0.8831030303030303 1.077478787878788 -1.1493818181818183 1.7211151515151515 -0.2662787878787879 0.6436363636363636 -0.40310303030303035 1.333430303030303 -0.402569696969697 2.030012121212121 0 0.5889939393939395 0.10046060606060606 1.1495757575757577 0.2729212121212121 1.68169696969697h1.5812363636363636v-4.456048484848485l3.4495999999999998 3.4495999999999998 3.4495999999999998 -3.4495999999999998v4.456048484848485h1.5807515151515152c0.17915151515151514 -0.5426909090909091 0.2714181818181818 -1.1102060606060606 0.2734060606060606 -1.68169696969697 0 -2.9321212121212126 -2.371587878787879 -5.303757575757576 -5.303757575757576 -5.303757575757576h-0.0009696969696969698Zm-0.7898666666666667 6.754666666666667 -1.5092363636363637 -1.5091878787878787v2.8027636363636366H3.4581818181818185c0.9339636363636363 1.5239272727272728 2.6156121212121213 2.54409696969697 4.527612121212122 2.54409696969697 1.9114666666666669 0 3.607369696969697 -1.020169696969697 4.527612121212122 -2.5440484848484846h-2.2280242424242425v-2.8028121212121215l-1.4944969696969697 1.5091878787878787L8 10.271175757575758l-0.8050909090909092 -0.7908848484848485 0.0005333333333333334 -0.0004848484848484849Z" clip-rule="evenodd" stroke-width="0.4848"></path>
</svg>